<svg width="20" height="20" viewBox="0 0 20 20" fill="none" xmlns="http://www.w3.org/2000/svg">
<path d="M9.65629 1.65597L6.45628 4.85598L8.05628 6.45599L11.2563 3.25598C12.5763 1.93597 14.7363 1.93597 16.0563 3.25598C17.3763 4.57598 17.3763 6.73599 16.0563 8.05599L12.8563 11.256L14.4563 12.856L17.6563 9.65599C19.8643 7.44799 19.8643 3.86398 17.6563 1.65597C15.4483 -0.552035 11.8643 -0.552035 9.65629 1.65597ZM11.2563 12.856L8.05628 16.056C6.73628 17.376 4.57627 17.376 3.25627 16.056C1.93626 14.736 1.93626 12.576 3.25627 11.256L6.45628 8.05599L4.85627 6.45599L1.65626 9.65599C-0.551745 11.864 -0.551745 15.448 1.65626 17.656C3.86427 19.864 7.44828 19.864 9.65629 17.656L12.8563 14.456L11.2563 12.856ZM5.65627 12.056L12.0563 5.65598L13.6563 7.25599L7.25628 13.656L5.65627 12.056Z" fill="#F6F6F5"/>
</svg>
