<svg width="24" height="24" viewBox="0 0 24 24" fill="none" xmlns="http://www.w3.org/2000/svg">
<g clip-path="url(#clip0_3737_6040)">
<path fill-rule="evenodd" clip-rule="evenodd" d="M10.8496 1.08371C5.86328 1.65669 2.91104 5.17529 2.54107 10.9864C1.9908 19.6282 7.02182 24.7701 14.5188 23.2281C20.9902 21.8971 22.9201 14.2503 17.4763 11.5093C17.1808 11.3605 17.0576 11.2635 17.0396 11.1654C17.0258 11.0902 16.9845 10.7904 16.9477 10.4992C16.4268 6.37524 11.5875 4.72434 8.71389 7.69029C8.04122 8.38463 8.01553 8.24848 8.93893 8.88366C9.7137 9.41666 9.7137 9.41666 10.058 9.06626C11.6642 7.43155 14.5037 8.14397 14.9773 10.3005C15.0674 10.7104 15.098 10.6888 14.5236 10.6206C13.6849 10.5209 11.6155 10.5971 11.0587 10.7481C6.13754 12.0831 7.2744 18.3235 12.3985 18.1024C14.7901 17.9993 16.3314 16.577 16.856 13.9889C16.983 13.3628 17.0731 13.3724 17.7554 14.0849C20.2387 16.678 17.8294 20.86 13.5395 21.403C7.22135 22.2027 3.71693 17.8752 4.52229 10.2679C5.01981 5.56884 7.73338 2.9995 12.1938 3.00436C15.8985 3.00838 18.588 4.85076 19.5144 8.0192C19.6921 8.62724 19.6304 8.60849 20.5975 8.34757C21.654 8.06254 21.5876 8.13923 21.3653 7.46046C19.8862 2.94198 15.8705 0.506776 10.8496 1.08371ZM14.1652 12.5805C15.1822 12.6933 15.1131 12.6547 15.0689 13.085C14.7911 15.793 12.1552 17.1772 10.3505 15.5628C8.55516 13.9567 10.7938 12.2066 14.1652 12.5805Z" fill="#F6F6F5"/>
</g>
<defs>
<clipPath id="clip0_3737_6040">
<rect width="24" height="24" fill="white"/>
</clipPath>
</defs>
</svg>
