<svg width="1121" height="221" viewBox="0 0 1121 221" fill="none" xmlns="http://www.w3.org/2000/svg">
<g clip-path="url(#clip0_468_1780)">
<path d="M490.206 217.33C488.695 217.33 487.359 217.069 486.197 216.546C486.003 216.459 485.805 216.38 485.61 216.294C484.581 215.84 484.066 214.958 484.066 213.646C484.066 212.214 484.68 211.088 485.908 210.27C487.341 209.451 489.08 208.735 491.127 208.121C493.992 207.098 496.754 205.972 499.415 204.744C502.28 203.312 503.712 200.549 503.712 196.456V128.924C503.712 123.808 503.098 119.408 501.87 115.724C500.643 111.836 497.675 109.483 492.968 108.664C492.15 108.46 491.434 108.05 490.82 107.436C490.206 106.822 489.899 105.799 489.899 104.367C489.899 101.911 490.82 100.479 492.661 100.069C497.982 98.6368 502.689 97.1019 506.782 95.4648C510.875 93.8276 514.661 92.0882 518.139 90.2464C521.618 88.1999 525.302 86.0512 529.19 83.8001C529.6 83.5955 530.009 83.3908 530.418 83.1862C531.032 82.7769 531.646 82.5723 532.26 82.5723C533.692 82.5723 534.409 83.3908 534.409 85.028C534.409 86.6651 534.102 89.6324 533.488 93.93C533.078 98.0228 532.874 101.502 532.874 104.367C532.874 106.095 533.02 107.24 533.312 107.8C533.403 107.975 533.598 108.05 533.795 108.05V108.05C533.991 108.05 534.179 107.972 534.319 107.834C539.397 102.802 545.669 98.1668 553.134 93.93C560.91 89.6324 570.221 87.4837 581.067 87.4837C588.025 87.4837 594.062 89.3255 599.178 93.0091C604.176 96.4073 608.197 101.758 611.242 109.061C611.373 109.377 611.681 109.585 612.022 109.585V109.585C612.25 109.585 612.467 109.493 612.626 109.33C618.911 102.898 626.093 97.6626 634.172 93.623C642.358 89.5301 651.362 87.4837 661.185 87.4837C667.938 87.4837 673.668 89.4278 678.375 93.316C683.082 97.2042 686.663 102.423 689.119 108.971C691.779 115.52 693.11 122.682 693.11 130.459V196.763C693.11 200.856 694.44 203.516 697.1 204.744C699.76 205.972 702.625 207.098 705.695 208.121C707.742 208.735 709.379 209.451 710.607 210.27C711.834 211.088 712.448 212.214 712.448 213.646C712.448 214.874 711.937 215.795 710.914 216.409C710.095 217.023 708.662 217.33 706.616 217.33C702.523 217.33 699.147 217.125 696.486 216.716C693.826 216.511 691.268 216.307 688.812 216.102C686.356 215.897 683.287 215.795 679.603 215.795C676.124 215.795 673.054 215.897 670.394 216.102C667.938 216.307 665.38 216.511 662.72 216.716C660.06 217.125 656.683 217.33 652.59 217.33C650.953 217.33 649.521 217.023 648.293 216.409C647.269 215.795 646.758 214.874 646.758 213.646C646.758 212.009 647.372 210.884 648.6 210.27C649.827 209.451 651.465 208.735 653.511 208.121C656.581 207.302 659.241 206.279 661.492 205.051C663.743 203.619 664.869 201.061 664.869 197.377V133.221C664.869 128.31 663.846 123.808 661.799 119.715C659.957 115.417 657.399 112.041 654.125 109.585C650.851 106.925 647.167 105.595 643.074 105.595C638.777 105.595 634.684 106.209 630.796 107.436C626.907 108.664 623.122 110.711 619.438 113.576C614.731 117.259 612.378 123.501 612.378 132.301V196.763C612.378 200.856 613.606 203.619 616.061 205.051C618.722 206.279 621.587 207.302 624.656 208.121C626.498 208.735 628.033 209.451 629.261 210.27C630.693 211.088 631.41 212.214 631.41 213.646C631.41 214.874 630.898 215.795 629.875 216.409C628.852 217.023 627.419 217.33 625.577 217.33C621.484 217.33 618.108 217.125 615.447 216.716C612.787 216.511 610.229 216.307 607.773 216.102C605.318 215.897 602.248 215.795 598.564 215.795C595.085 215.795 592.016 215.897 589.355 216.102C586.9 216.307 584.342 216.511 581.681 216.716C579.021 217.125 575.644 217.33 571.551 217.33C570.119 217.33 568.789 217.023 567.561 216.409C566.333 215.795 565.719 214.874 565.719 213.646C565.719 212.009 566.435 210.884 567.868 210.27C569.3 209.451 570.835 208.735 572.472 208.121C575.542 207.302 578.202 206.279 580.453 205.051C582.909 203.619 584.137 201.061 584.137 197.377V133.221C584.137 128.31 583.114 123.808 581.067 119.715C579.226 115.622 576.668 112.246 573.393 109.585C570.119 106.925 566.435 105.595 562.342 105.595C558.25 105.595 554.157 106.209 550.064 107.436C546.176 108.664 542.39 110.711 538.706 113.576C534.204 116.85 531.953 122.989 531.953 131.994V196.763C531.953 200.651 533.078 203.312 535.33 204.744C537.581 205.972 540.241 207.098 543.311 208.121C544.948 208.735 546.483 209.451 547.915 210.27C549.348 210.884 550.064 212.009 550.064 213.646C550.064 214.874 549.45 215.795 548.222 216.409C547.199 217.023 545.869 217.33 544.232 217.33C540.139 217.33 536.762 217.125 534.102 216.716C531.441 216.511 528.986 216.307 526.735 216.102C524.483 215.897 521.516 215.795 517.833 215.795C514.354 215.795 511.284 215.897 508.624 216.102C505.963 216.307 503.201 216.511 500.336 216.716C497.675 217.125 494.299 217.33 490.206 217.33Z" fill="#2B2325"/>
<path d="M426.684 220.709C420.136 220.709 413.894 219.789 407.96 217.947C402.541 216.205 397.763 213.731 393.626 210.526C393.155 210.161 392.765 209.699 392.517 209.158C391.293 206.486 390.404 202.561 389.849 197.38C389.235 191.65 388.928 186.432 388.928 181.725C388.928 179.678 390.463 178.655 393.532 178.655C394.522 178.655 395.379 178.855 396.103 179.254C396.449 179.444 396.794 179.638 397.139 179.83C397.843 180.225 398.278 180.754 398.444 181.418C401.513 191.036 405.811 198.301 411.336 203.212C416.862 208.124 422.899 210.58 429.447 210.58C435.177 210.58 439.884 208.738 443.567 205.054C447.251 201.166 449.093 196.562 449.093 191.241C449.093 185.715 447.149 181.111 443.261 177.427C439.372 173.539 433.438 169.139 425.457 164.228C418.908 160.34 413.28 156.554 408.573 152.87C403.867 148.982 400.285 144.787 397.83 140.285C395.374 135.578 394.146 130.257 394.146 124.322C394.146 117.16 395.886 110.816 399.365 105.291C403.048 99.7653 408.164 95.3654 414.713 92.0911C421.261 88.8168 429.14 87.1797 438.349 87.1797C444.898 87.1797 452.67 87.8959 457.172 89.3284C461.425 90.438 464.593 91.6312 466.673 92.9079C467.097 93.168 467.457 93.5201 467.723 93.9402C469.168 96.2231 470.358 99.6996 471.292 104.37C472.52 109.486 473.134 123.588 473.134 128.704C473.134 130.342 471.804 131.16 469.143 131.16C467.916 131.16 466.585 130.853 465.153 130.239C463.925 129.625 463.106 128.807 462.697 127.784C460.037 120.621 454.414 108.458 450.321 104.775C446.432 101.091 441.623 99.2492 435.893 99.2492C430.982 99.2492 426.582 100.784 422.694 103.854C418.806 106.719 416.862 110.914 416.862 116.439C416.862 121.146 418.499 123.095 421.773 126.778C425.252 130.257 430.675 134.043 438.042 138.136C450.321 144.889 459.325 151.335 465.055 157.475C470.99 163.409 473.957 171.39 473.957 181.418C473.957 193.287 469.66 202.803 461.064 209.966C452.674 217.128 441.214 220.709 426.684 220.709Z" fill="#2B2325"/>
<path d="M292.763 220.709C288.465 220.709 284.27 219.277 280.177 216.412C276.084 213.751 272.708 210.375 270.047 206.282C267.387 201.984 266.057 197.789 266.057 193.696C266.057 186.943 267.898 181.52 271.582 177.427C275.47 173.334 281.405 169.651 289.386 166.376L319.162 153.791C323.254 152.154 325.71 150.721 326.529 149.493C327.347 148.061 327.859 145.298 328.064 141.205L328.678 122.48C328.882 116.955 327.552 112.35 324.687 108.667C321.822 104.983 317.627 103.142 312.101 103.142C309.236 103.142 306.269 103.755 303.199 104.983C300.334 106.007 297.981 107.234 296.139 108.667C295.116 109.485 294.4 110.611 293.99 112.044C293.786 113.476 293.683 115.011 293.683 116.648C293.683 117.565 293.683 116.843 293.683 117.712C293.683 117.959 293.705 118.208 293.743 118.452C293.908 119.518 293.99 120.419 293.99 121.155C293.99 122.382 292.558 123.917 289.693 125.759C287.033 127.396 283.861 128.931 280.177 130.364C276.698 131.796 273.731 132.512 271.275 132.512C270.304 132.512 269.461 132.32 268.746 131.936C268.371 131.735 268.062 131.426 267.86 131.051C267.476 130.336 267.285 129.493 267.285 128.522C267.285 122.246 275.698 113.427 280.177 109.588C285.088 105.29 290.409 101.504 296.139 98.2301C302.074 94.7512 307.804 92.0908 313.329 90.249C319.059 88.4072 324.073 87.4863 328.371 87.4863C336.966 87.4863 343.923 90.4537 349.244 96.3883C354.77 102.118 357.328 109.588 356.918 118.797L355.383 188.171C355.179 192.673 356.1 196.357 358.146 199.222C360.193 202.087 362.751 203.519 365.82 203.519C370.527 203.519 371.812 202.291 374.473 199.836C375.291 199.017 376.008 198.608 376.622 198.608C377.518 198.608 378.258 198.843 378.84 199.315C379.005 199.449 379.166 199.589 379.324 199.731C379.978 200.319 380.305 201.07 380.305 201.984C380.305 207.661 371.799 215.502 367.048 217.639C363.16 219.686 359.374 220.709 355.69 220.709C345.613 220.709 337.52 215.349 331.413 204.63C331.239 204.326 330.916 204.133 330.566 204.133V204.133C330.338 204.133 330.116 204.215 329.942 204.362C323.289 209.975 317.036 214.094 311.18 216.719C305.246 219.379 299.107 220.709 292.763 220.709ZM308.725 204.133C312.204 204.133 315.069 203.621 317.32 202.598C319.776 201.37 321.924 199.733 323.766 197.687C324.789 196.664 325.506 195.436 325.915 194.003C326.529 192.366 326.938 189.91 327.143 186.636L327.757 169.139C327.961 167.093 327.859 165.66 327.45 164.842C327.04 163.818 326.222 163.307 324.994 163.307C324.585 163.307 323.971 163.409 323.152 163.614C322.334 163.818 321.208 164.228 319.776 164.842C310.567 168.32 304.12 172.004 300.437 175.892C296.753 179.576 294.911 183.669 294.911 188.171C294.911 193.696 296.344 197.789 299.209 200.449C302.278 202.905 305.45 204.133 308.725 204.133Z" fill="#2B2325"/>
<path d="M191.143 217.331C189.711 217.331 188.278 217.127 186.846 216.717C185.618 216.308 185.004 215.387 185.004 213.955C185.004 212.317 185.72 211.192 187.153 210.578C188.585 209.759 190.222 208.941 192.064 208.122C195.134 207.099 197.999 205.974 200.659 204.746C203.319 203.518 204.65 200.755 204.65 196.458V44.5099C204.65 36.4406 199.292 28.5275 191.143 26.8978C189.506 26.4885 188.687 25.056 188.687 22.6003C188.687 20.3492 189.404 19.019 190.836 18.6098C196.157 17.5865 198.773 16.2564 203.479 14.6192C211.679 11.767 222.533 5.66816 229.621 0.952885C229.959 0.728032 230.322 0.545813 230.711 0.427966C231.651 0.142655 232.378 0 232.89 0C233.293 0 233.607 0.131701 233.833 0.395103C234.094 0.697908 234.245 1.0824 234.417 1.44276C234.627 1.88273 234.732 2.32271 234.732 2.76269C234.732 4.39984 234.425 7.87877 233.811 13.1995C233.197 18.5202 232.89 26.5013 232.89 37.1428V196.458C232.89 200.55 234.221 203.313 236.881 204.746C239.541 205.974 242.406 207.099 245.476 208.122C247.318 208.736 248.955 209.452 250.387 210.271C251.82 211.09 252.536 212.317 252.536 213.955C252.536 215.182 251.82 216.001 250.387 216.41C249.16 216.82 247.829 217.024 246.397 217.024C242.509 217.024 239.132 216.922 236.267 216.717C233.402 216.513 230.639 216.308 227.979 216.103C225.319 215.899 222.147 215.796 218.463 215.796C214.984 215.796 211.915 215.899 209.254 216.103C206.594 216.308 203.933 216.513 201.273 216.717C198.613 217.127 195.236 217.331 191.143 217.331Z" fill="#2B2325"/>
<path d="M8.47991 217.716C6.08814 217.716 4.02252 217.39 2.28305 216.738C0.761017 216.303 0 215.324 0 213.802C0 210.976 3.15279 208.91 9.45836 207.605C17.7208 206.083 23.5915 203.692 27.0705 200.43C30.7668 197.169 32.615 191.733 32.615 184.123V43.5519C32.615 34.4197 31.3104 27.5705 28.7012 23.0044C26.3095 18.4383 21.0911 15.3943 13.046 13.8722C9.56707 13.2199 7.06659 12.3502 5.54455 11.263C4.02252 10.1759 3.2615 8.87127 3.2615 7.34923C3.2615 6.04463 4.02252 5.06617 5.54455 4.41387C7.28402 3.54413 9.34964 3.10926 11.7414 3.10926C17.3947 3.10926 22.0695 3.21798 25.7659 3.43541C29.4622 3.43541 33.0499 3.54413 36.5288 3.76158C40.0078 3.97901 43.9216 4.08772 48.2702 4.08772C52.8363 4.08772 57.2937 3.87029 61.6424 3.43541C65.9911 3.00055 70.231 2.56569 74.3623 2.13082C78.7109 1.69595 83.0596 1.47852 87.4083 1.47852C112.848 1.47852 133.178 6.80564 148.398 17.4599C163.619 28.1141 171.229 42.7909 171.229 61.4902C172.696 89.3089 158.513 108.459 138.614 120.945C127.525 127.686 113.392 131.056 96.2143 131.056C91.2134 131.056 87.2996 130.295 84.4729 128.773C81.8637 127.251 80.5591 125.729 80.5591 124.207C80.5591 122.902 81.2114 121.815 82.516 120.945C83.8206 119.858 85.0165 119.315 86.1037 119.315C87.6257 119.315 89.3652 119.532 91.3221 119.967C93.4964 120.184 96.5405 120.293 100.454 120.293C128.128 120.293 136.005 87.9254 136.005 65.7301C136.005 47.4657 131.439 34.0935 122.306 25.6136C113.392 16.9163 101.759 12.5676 87.4083 12.5676C81.3201 12.5676 71.9346 13.7635 68.2383 16.1553C64.7593 18.3296 63.0199 22.026 63.0199 27.2444L62.6937 181.513C62.6937 188.906 64.4332 194.777 67.9121 199.126C71.391 203.257 77.3705 206.083 85.8504 207.605C88.8944 208.258 91.1775 209.019 92.6995 209.889C94.439 210.758 95.3088 212.063 95.3088 213.802C95.3088 215.107 94.5477 216.085 93.0257 216.738C91.5037 217.39 89.4381 217.716 86.8288 217.716C81.393 217.716 76.5007 217.499 72.1521 217.064C68.0208 216.846 63.9983 216.629 60.0845 216.412C56.3881 215.977 52.4743 215.759 48.3431 215.759C43.1247 215.759 42.617 215.977 37.8334 216.412C33.2673 216.629 28.5925 216.846 23.809 217.064C19.2429 217.499 14.1332 217.716 8.47991 217.716Z" fill="#2B2325"/>
<path d="M940.031 196.763C940.031 200.651 941.156 203.312 943.407 204.744C945.658 205.972 948.319 207.098 951.389 208.121C953.026 208.735 954.561 209.451 955.993 210.27C957.426 210.883 958.142 212.009 958.142 213.646C958.141 214.874 957.528 215.795 956.3 216.409C955.277 217.023 953.946 217.33 952.31 217.33C948.217 217.33 944.84 217.125 942.18 216.716C939.519 216.511 937.064 216.306 934.812 216.102C932.561 215.897 929.594 215.795 925.91 215.795C922.431 215.795 919.361 215.897 916.701 216.102C914.041 216.306 911.278 216.511 908.413 216.716C905.753 217.125 902.376 217.33 898.283 217.33C896.773 217.33 895.437 217.069 894.275 216.546C894.081 216.459 893.883 216.38 893.688 216.294C892.659 215.841 892.145 214.958 892.145 213.646C892.145 212.214 892.758 211.088 893.986 210.27C895.419 209.451 897.158 208.735 899.204 208.121C902.069 207.098 904.832 205.972 907.492 204.744C910.357 203.312 911.79 200.549 911.79 196.456V168.443C911.79 165.962 913.802 163.95 916.283 163.95H935.538C938.02 163.95 940.031 165.962 940.031 168.443V196.763ZM1020.46 196.763C1020.46 200.856 1021.68 203.618 1024.14 205.051C1026.8 206.279 1029.66 207.303 1032.73 208.121C1034.58 208.735 1036.11 209.451 1037.34 210.27C1038.77 211.088 1039.49 212.214 1039.49 213.646C1039.49 214.874 1038.98 215.795 1037.95 216.409C1036.93 217.023 1035.5 217.33 1033.66 217.33C1029.56 217.33 1026.19 217.125 1023.53 216.716C1020.87 216.511 1018.31 216.306 1015.85 216.102C1013.4 215.897 1010.33 215.795 1006.64 215.795C1003.16 215.795 1000.09 215.897 997.434 216.102C994.978 216.306 992.419 216.511 989.759 216.716C987.099 217.125 983.722 217.33 979.63 217.33C978.197 217.33 976.867 217.023 975.639 216.409C974.411 215.795 973.797 214.874 973.797 213.646C973.797 212.009 974.513 210.884 975.945 210.27C977.378 209.451 978.914 208.735 980.551 208.121C983.62 207.303 986.28 206.279 988.531 205.051C990.987 203.618 992.215 201.06 992.215 197.377V168.443C992.215 165.962 994.227 163.95 996.708 163.95H1015.96C1018.44 163.95 1020.46 165.962 1020.46 168.443V196.763ZM940.338 82.5723C941.77 82.5723 942.486 83.3905 942.486 85.0273C942.486 86.6645 942.179 89.6322 941.565 93.9297C941.156 98.0224 940.952 101.501 940.952 104.366C940.952 106.094 941.098 107.238 941.389 107.799C941.48 107.974 941.676 108.05 941.873 108.05V108.05C942.069 108.05 942.257 107.972 942.397 107.834C947.475 102.801 953.747 98.1665 961.212 93.9297C968.988 89.6323 978.3 87.4834 989.146 87.4834C996.103 87.4834 1002.14 89.3254 1007.26 93.0088C1012.25 96.407 1016.28 101.758 1019.32 109.061C1019.45 109.377 1019.76 109.585 1020.1 109.585V109.585C1020.33 109.585 1020.55 109.493 1020.7 109.33C1026.99 102.898 1034.17 97.6626 1042.25 93.623C1050.44 89.5302 1059.44 87.4835 1069.26 87.4834C1076.02 87.4834 1081.75 89.4273 1086.45 93.3154C1091.16 97.2036 1094.74 102.422 1097.2 108.971C1099.86 115.519 1101.19 122.683 1101.19 130.459V196.763C1101.19 200.855 1102.52 203.516 1105.18 204.744C1107.84 205.972 1110.7 207.098 1113.77 208.121C1115.82 208.735 1117.46 209.451 1118.68 210.27C1119.91 211.088 1120.53 212.214 1120.53 213.646C1120.53 214.874 1120.01 215.795 1118.99 216.409C1118.17 217.023 1116.74 217.33 1114.69 217.33C1110.6 217.33 1107.22 217.125 1104.56 216.716C1101.9 216.511 1099.35 216.306 1096.89 216.102C1094.43 215.897 1091.36 215.795 1087.68 215.795C1084.2 215.795 1081.13 215.897 1078.47 216.102C1076.02 216.306 1073.46 216.511 1070.8 216.716C1068.14 217.125 1064.76 217.33 1060.67 217.33C1059.03 217.33 1057.6 217.023 1056.37 216.409C1055.35 215.795 1054.84 214.874 1054.84 213.646C1054.84 212.009 1055.45 210.883 1056.68 210.27C1057.91 209.451 1059.54 208.735 1061.59 208.121C1064.66 207.303 1067.32 206.279 1069.57 205.051C1071.82 203.618 1072.95 201.06 1072.95 197.377V133.222C1072.95 128.31 1071.92 123.808 1069.88 119.715C1068.04 115.417 1065.48 112.041 1062.2 109.585C1058.93 106.925 1055.25 105.595 1051.15 105.595C1046.85 105.595 1042.76 106.209 1038.87 107.437C1034.99 108.664 1031.2 110.71 1027.52 113.575C1024.03 116.304 1021.83 120.438 1020.93 125.976C1020.54 128.349 1018.61 130.251 1016.2 130.251H996.197C993.869 130.251 991.966 128.46 991.453 126.19C990.942 123.928 990.173 121.77 989.146 119.715C987.304 115.622 984.746 112.245 981.472 109.585C978.198 106.925 974.514 105.595 970.421 105.595C966.328 105.595 962.234 106.209 958.142 107.437C954.254 108.664 950.468 110.71 946.784 113.575C943.378 116.052 941.261 120.17 940.432 125.927C940.087 128.324 938.142 130.251 935.72 130.251H913.117C912.384 130.251 911.79 129.657 911.79 128.924V128.924C911.79 123.808 911.176 119.408 909.948 115.725C908.72 111.836 905.753 109.483 901.046 108.664C900.228 108.459 899.511 108.05 898.897 107.437C898.284 106.823 897.977 105.799 897.977 104.366C897.977 101.911 898.898 100.479 900.739 100.069C906.06 98.6369 910.767 97.1019 914.859 95.4648C918.952 93.8277 922.739 92.0879 926.218 90.2461C929.697 88.1997 933.38 86.0508 937.269 83.7998C937.678 83.5952 938.087 83.3901 938.496 83.1855C939.11 82.7764 939.724 82.5723 940.338 82.5723Z" fill="#2B2325"/>
<path d="M877.739 163.955C879.378 163.955 880.913 164.838 881.569 166.341C883.476 170.709 884.432 175.734 884.432 181.418C884.432 193.287 880.134 202.803 871.539 209.966C863.149 217.128 851.689 220.709 837.159 220.709C830.611 220.709 824.368 219.788 818.434 217.946C813.015 216.205 808.237 213.731 804.1 210.526C803.629 210.161 803.24 209.699 802.992 209.158C801.768 206.486 800.878 202.56 800.323 197.38C799.709 191.65 799.402 186.431 799.402 181.725C799.402 179.678 800.937 178.655 804.007 178.655C804.997 178.655 805.854 178.855 806.577 179.254C806.923 179.444 807.269 179.638 807.613 179.83C808.317 180.225 808.752 180.754 808.918 181.418C811.988 191.036 816.285 198.301 821.811 203.212C827.336 208.123 833.373 210.579 839.922 210.579C845.652 210.579 850.359 208.737 854.042 205.054C857.725 201.166 859.567 196.561 859.567 191.24C859.567 185.715 857.623 181.11 853.734 177.427C849.846 173.539 843.911 169.139 835.931 164.228V164.228C835.803 164.152 835.857 163.955 836.006 163.955H877.739ZM848.823 87.1797C855.372 87.1797 863.144 87.8956 867.646 89.3281C871.9 90.4377 875.067 91.6307 877.148 92.9073C877.572 93.1674 877.931 93.5195 878.197 93.9396C879.643 96.2224 880.833 99.6991 881.767 104.369C882.994 109.485 883.608 123.588 883.608 128.704V128.704C883.608 129.809 882.373 130.256 881.269 130.256H875.712C875.683 130.256 875.654 130.251 875.627 130.239V130.239C874.399 129.625 873.581 128.806 873.172 127.783C870.512 120.621 864.888 108.458 860.795 104.774C856.907 101.091 852.097 99.249 846.367 99.249C841.456 99.2491 837.056 100.784 833.168 103.854C829.28 106.718 827.336 110.913 827.336 116.438C827.336 121.145 828.973 123.095 832.247 126.778V126.778C833.47 128.002 832.673 130.256 830.943 130.256H808.915C806.697 130.256 804.785 128.638 804.673 126.423C804.638 125.732 804.62 125.031 804.62 124.322C804.62 117.16 806.36 110.815 809.839 105.29C813.522 99.7648 818.639 95.3651 825.188 92.0908C831.736 88.8167 839.615 87.1797 848.823 87.1797Z" fill="#2B2325"/>
<path d="M773.35 196.763C773.35 200.037 774.476 202.493 776.727 204.13C778.978 205.767 782.457 207.199 787.163 208.427C788.648 208.798 789.965 209.338 791.114 210.046C791.347 210.19 791.591 210.317 791.832 210.448C793.017 211.091 793.609 212.157 793.609 213.646C793.609 216.101 791.768 217.329 788.084 217.329C784.196 217.329 780.717 217.124 777.647 216.715C774.578 216.51 771.61 216.306 768.745 216.102C766.085 215.897 762.913 215.794 759.229 215.794C755.751 215.794 752.579 215.897 749.714 216.102C746.849 216.306 743.983 216.51 741.118 216.715C738.458 217.124 735.081 217.329 730.988 217.329C729.351 217.329 727.919 217.022 726.691 216.408C725.668 215.794 725.156 214.873 725.156 213.646C725.156 212.008 725.77 210.882 726.998 210.269C728.431 209.45 729.965 208.836 731.603 208.427C736.309 207.199 739.788 205.869 742.039 204.437C744.29 203.004 745.416 200.446 745.416 196.763V168.443C745.416 165.962 747.428 163.95 749.909 163.95H768.856C771.338 163.95 773.35 165.962 773.35 168.443V196.763ZM773.964 81.6504C775.601 81.6504 776.42 82.4694 776.42 84.1064C776.42 86.3574 776.113 89.9385 775.499 94.8496C775.09 99.7611 774.578 105.082 773.964 110.812C773.555 116.542 773.35 121.863 773.35 126.774V126.774C773.35 128.694 771.793 130.251 769.873 130.251H749.89C747.415 130.251 745.44 128.244 745.194 125.781C744.792 121.771 743.844 118.419 742.347 115.724C740.3 111.835 736.719 109.482 731.603 108.663C730.864 108.515 730.232 108.261 729.707 107.901C729.309 107.627 729.021 107.22 728.876 106.759C728.647 106.031 728.533 105.13 728.533 104.059C728.533 101.603 729.454 100.273 731.296 100.068C740.3 98.0219 747.974 95.3621 754.318 92.0879C760.867 88.609 765.778 85.8462 769.053 83.7998C771.304 82.3674 772.941 81.6504 773.964 81.6504Z" fill="#2B2325"/>
<rect x="743.631" y="22.4668" width="31.4527" height="31.4527" rx="4.49324" fill="#2B2325"/>
</g>
<defs>
<clipPath id="clip0_468_1780">
<rect width="1120.53" height="220.709" fill="white"/>
</clipPath>
</defs>
</svg>
