<svg width="955" height="457" viewBox="0 0 955 457" fill="none" xmlns="http://www.w3.org/2000/svg">
<path d="M528.336 75.2236C539.082 75.2236 547.796 81.3227 551.281 89.4551C554.767 95.5544 556.219 107.753 556.219 116.467C556.219 128.085 555.348 154.806 555.348 162.357C555.348 167.585 557.961 172.813 565.513 172.813C568.127 172.813 571.032 172.233 574.227 170.49C575.679 169.619 576.84 170.49 575.679 173.104C571.322 181.817 561.738 186.464 552.443 186.464C543.149 186.464 537.049 179.203 534.726 173.104C534.435 172.523 533.564 172.233 533.273 172.813C524.56 180.946 515.846 185.884 504.81 185.884C493.192 185.884 481.574 176.008 481.574 160.614C481.574 151.03 488.835 145.221 492.03 143.769C499.292 139.993 524.851 132.442 531.531 130.118C533.855 129.247 535.016 126.922 535.307 125.761C535.597 122.275 535.888 115.886 535.888 112.11C535.888 100.202 533.564 92.6498 528.917 88.874C525.141 85.9697 520.494 84.2276 517.009 84.2275C512.652 84.2275 509.456 85.0989 505.681 87.7129C503.938 89.1651 502.196 90.9079 501.615 94.1025C501.325 95.2643 501.615 98.169 501.615 100.202C501.615 101.073 500.744 102.234 500.163 102.815C497.259 104.558 488.254 109.205 485.35 109.786C484.188 110.076 482.736 108.334 482.736 106.882C482.736 104.558 485.06 101.364 488.545 97.2979C494.935 90.0367 503.648 84.518 510.619 80.7422C517.299 77.2569 523.689 75.2236 528.336 75.2236ZM434.781 75.2236C452.789 75.2237 470.506 88.003 470.506 105.43C470.506 107.172 468.763 108.625 467.602 108.625C464.987 108.625 427.52 107.754 420.84 107.754H406.317C405.736 107.754 403.994 109.496 403.703 110.367C402.251 113.272 401.67 118.21 401.67 125.181C401.67 139.993 407.189 151.611 414.74 160.034C422.292 168.747 433.91 171.942 442.623 171.942C454.531 171.942 463.245 169.328 470.216 162.647C472.539 160.615 473.701 161.196 473.701 162.357C473.701 163.519 472.83 164.972 471.087 167.005C460.05 179.494 447.27 186.174 429.844 186.174C415.902 186.174 403.994 180.656 395.28 171.361C386.276 162.067 381.339 148.125 381.339 132.441C381.339 118.5 386.276 101.363 398.766 89.4551C406.608 81.9035 419.678 75.2236 434.781 75.2236ZM248.285 -0.00195312C257.289 -0.00195312 267.164 1.45019 275.297 1.4502C285.462 1.4502 293.014 0.288117 300.565 0.288086C304.051 0.288086 305.503 0.869463 305.503 2.03125C305.502 3.1929 303.179 4.35412 301.146 4.64453C289.819 6.9681 288.948 8.71162 288.076 28.4619C287.786 33.4008 287.496 60.9922 287.496 87.4219C287.496 114.724 287.786 142.898 288.076 148.416C288.947 160.034 289.529 167.875 291.853 171.07C295.047 175.427 303.18 178.332 325.835 178.622C337.743 178.622 345.295 178.332 350.232 177.17C356.332 175.717 363.303 167.876 369.111 157.42C371.435 153.644 372.887 152.772 374.049 152.772C375.501 152.773 374.92 157.129 373.468 161.485C372.596 163.518 366.788 180.074 365.626 182.107C364.464 184.141 361.559 185.012 358.945 185.012C356.04 185.012 334.257 185.012 320.025 184.431C305.503 183.85 285.462 182.979 274.135 182.979C265.421 182.979 251.771 184.431 247.995 184.431C244.219 184.431 241.605 184.14 241.605 182.397C241.606 180.946 243.929 180.365 246.543 179.784C258.742 177.751 260.774 173.974 261.646 164.971C262.807 153.062 262.808 134.184 262.808 94.1025C262.808 54.6025 262.807 35.1423 262.227 24.9766C261.355 8.42117 259.903 6.67764 247.995 4.64453C244.219 3.77319 243.348 2.90202 243.348 1.74023C243.348 0.86897 245.381 -0.00189685 248.285 -0.00195312ZM610.096 73.4814C610.967 72.9007 612.419 74.063 612.129 75.8057C611.838 79.2911 611.257 86.5516 611.548 90.9082C611.548 91.4891 612.419 92.07 613 91.4893C619.971 86.2612 626.652 81.614 632.751 79C638.56 76.0957 644.659 75.2246 649.887 75.2246C661.795 75.2246 668.766 80.7426 672.832 85.3896C679.222 92.0699 681.836 106.302 682.127 122.857C682.127 138.542 682.417 141.156 682.417 155.969C682.707 175.428 683.579 177.461 691.421 179.204C694.035 180.075 695.777 180.947 695.777 182.108C695.777 183.851 693.744 184.142 690.84 184.142C686.193 184.142 677.479 182.979 671.38 182.979C659.762 182.979 655.406 184.142 651.63 184.142C649.307 184.142 646.983 183.561 646.982 182.399C646.982 181.238 648.726 180.075 652.211 179.204C659.472 177.461 660.634 175.428 660.634 167.296V127.214C660.634 103.979 658.6 97.0077 651.63 91.4893C647.273 88.0039 641.755 86.2618 635.655 86.2617C628.394 86.2617 621.423 89.1661 614.743 94.6846C613.001 96.4272 611.548 100.493 611.548 102.816C611.548 106.883 611.839 121.406 611.839 137.961C612.129 156.84 613.001 165.844 613.291 169.91C614.162 176.59 617.357 178.042 622.295 179.204C625.78 180.366 626.941 180.947 626.941 182.399C626.941 184.142 624.037 184.142 621.423 184.142C618.808 184.142 603.996 182.979 597.606 182.979C593.54 182.98 587.15 183.561 580.761 183.561C577.566 183.561 575.533 182.98 575.533 181.527C575.534 180.075 577.857 179.204 581.342 178.623C588.893 177.171 589.474 175.137 589.765 169.038C590.346 148.997 590.636 122.857 590.636 98.46C590.636 95.5555 590.055 92.3603 583.375 88.875C581.342 87.4228 581.051 86.842 581.051 85.9707C581.051 85.0995 582.213 84.5187 585.117 83.6475C592.378 81.9048 605.158 76.3859 610.096 73.4814ZM535.307 135.346C535.307 134.765 534.726 133.313 533.854 133.604C530.369 134.184 515.265 139.703 509.166 142.897C505.39 144.931 501.615 149.578 501.615 157.71C501.615 167.585 510.038 174.265 518.751 174.266C523.398 174.266 527.755 172.813 530.659 169.909C531.821 168.747 533.274 166.133 533.854 163.229C534.726 158.581 535.307 146.673 535.307 135.346ZM431.877 79.29C424.906 79.29 418.225 83.6467 412.126 89.7461C408.641 93.8124 406.027 100.202 406.027 102.235C406.028 102.816 406.608 103.687 407.188 103.688H442.333C449.013 103.687 449.594 100.202 449.594 97.5879C449.594 93.5217 448.722 88.5844 445.527 84.8086C442.913 82.1946 438.267 79.2901 431.877 79.29Z" fill="#2B2325"/>
<path d="M472.201 262.257C486.142 262.257 498.922 268.065 502.117 269.808C504.441 270.969 507.054 271.261 512.282 271.261C517.51 271.261 528.838 270.68 533.485 270.68C534.647 270.68 536.099 273.584 536.099 277.069C536.099 279.974 534.066 282.588 532.904 282.588C528.838 282.588 518.673 282.007 515.478 282.007C514.606 282.007 513.735 283.168 513.734 283.459C513.734 285.783 514.315 290.43 514.315 295.367C514.315 312.213 506.473 326.445 496.308 333.997C487.304 340.387 477.719 341.839 473.072 341.839C469.297 341.839 463.198 340.968 460.293 340.387C459.131 340.096 457.389 340.677 456.808 340.968C454.194 342.71 450.417 346.486 447.513 349.391C445.189 352.005 444.608 354.619 444.608 355.78C444.608 364.203 455.646 367.398 471.039 367.398C479.752 367.398 495.146 366.817 503.859 366.817C515.768 366.817 521.577 370.012 526.805 374.369C533.485 380.178 536.971 389.181 536.971 399.347C536.971 418.516 521.286 436.524 505.312 445.528C493.694 452.499 481.786 456.274 468.716 456.274C444.609 456.274 426.02 444.657 426.02 424.035C426.02 418.226 428.634 414.74 431.248 411.836C433.572 409.221 444.028 396.733 449.256 390.634C449.836 390.343 449.836 388.601 449.256 388.311C441.704 386.568 425.44 376.402 425.439 363.913C425.439 362.461 426.601 361.298 427.182 361.008C434.733 356.07 447.513 344.743 451.579 339.806C451.87 339.515 451.58 338.353 451.289 338.062C440.833 332.254 428.634 319.474 428.634 302.338C428.634 288.977 433.572 280.845 440.833 274.165C449.256 266.033 460.874 262.257 472.201 262.257ZM496.599 388.891C485.852 388.891 471.039 389.181 462.906 389.472C457.098 389.762 454.774 390.925 453.902 391.796C447.513 397.314 441.994 406.608 441.994 415.902C441.994 421.421 445.19 431.296 453.612 437.686C461.164 442.914 467.844 445.818 480.624 445.818C487.014 445.818 498.342 445.528 507.636 439.429C515.768 433.91 523.029 422.293 523.029 411.256C523.029 399.348 515.477 388.891 496.599 388.891ZM335.365 263.997C343.498 263.997 352.502 266.03 355.987 267.482C356.568 267.773 357.439 269.225 357.439 270.097C357.73 273.292 358.891 278.811 359.182 284.329C359.182 287.523 358.601 288.975 357.439 288.976C356.278 288.976 355.987 287.524 355.115 285.2C353.373 280.844 352.211 276.777 347.854 273.292C344.66 270.388 339.722 268.645 333.913 268.645C325.2 268.645 316.776 275.035 316.776 285.781C316.777 297.98 327.233 304.37 335.946 309.598C354.535 321.796 361.796 329.348 361.796 344.161C361.796 356.65 353.082 364.782 347.273 368.268C340.884 372.915 330.428 375.238 322.586 375.238C315.325 375.238 307.773 373.496 299.06 370.011C297.026 369.139 294.994 366.816 294.703 365.363C294.703 361.297 294.122 353.455 293.831 350.26C293.25 346.484 294.122 345.322 294.703 345.322C295.574 345.322 296.446 345.614 298.479 351.132C301.093 358.102 305.45 363.911 310.678 367.105C315.325 370.01 319.391 370.882 324.038 370.882C332.171 370.882 342.626 363.33 342.626 352.003C342.626 341.837 335.655 335.738 323.166 327.605C309.515 319.183 299.35 307.565 299.35 295.366C299.35 285.201 303.997 277.068 310.968 271.84C316.196 267.774 324.909 263.997 335.365 263.997ZM70.5781 186.738C94.1043 186.738 115.017 190.224 135.058 202.423C158.003 216.945 177.753 241.633 177.753 279.101C177.753 337.77 137.672 363.62 100.785 372.624C92.9432 374.367 81.0346 374.948 73.7734 374.948C66.8028 374.948 59.5416 374.367 51.4092 373.786C42.6958 373.205 34.563 372.334 25.8496 372.334C18.0076 372.334 8.71305 372.915 5.80859 372.915C2.61383 372.915 0 372.333 0 370.591C0.000299089 369.72 1.45255 368.848 4.9375 368.268C15.3935 366.525 18.0076 364.201 18.8789 352.874C19.7502 345.903 20.041 322.377 20.041 293.623C20.041 241.633 19.4598 218.397 18.8789 209.394C18.0076 199.228 16.5551 196.323 5.80859 194.29C3.19474 194 1.16211 193.128 1.16211 191.676C1.16265 190.514 3.19526 189.934 6.38965 189.934C18.8788 189.934 31.3681 189.933 43.2764 188.771C51.4088 187.9 63.8978 186.738 70.5781 186.738ZM248.181 263.997C266.188 263.997 283.905 276.777 283.905 294.204C283.905 295.947 282.163 297.398 281.001 297.398C278.384 297.398 240.919 296.527 234.239 296.527H219.717C219.136 296.528 217.394 298.27 217.104 299.142C215.651 302.046 215.07 306.983 215.07 313.954C215.07 328.767 220.588 340.385 228.14 348.808C235.691 357.521 247.309 360.716 256.022 360.716C267.931 360.716 276.645 358.102 283.615 351.422C285.939 349.389 287.101 349.97 287.101 351.132C287.1 352.294 286.229 353.745 284.486 355.778C273.449 368.268 260.67 374.948 243.243 374.948C229.302 374.948 217.393 369.429 208.68 360.135C199.676 350.841 194.738 336.899 194.738 321.216C194.738 307.275 199.676 290.138 212.165 278.229C220.007 270.678 233.078 263.997 248.181 263.997ZM717.215 263.997C735.223 263.997 752.939 276.777 752.939 294.204C752.939 295.947 751.197 297.398 750.035 297.398C747.42 297.398 709.954 296.527 703.273 296.527H688.751C688.17 296.528 686.427 298.27 686.137 299.142C684.685 302.046 684.104 306.984 684.104 313.954C684.104 328.767 689.622 340.385 697.174 348.808C704.725 357.521 716.343 360.716 725.057 360.716C736.965 360.716 745.679 358.102 752.649 351.422C754.973 349.389 756.135 349.97 756.135 351.132C756.135 352.294 755.263 353.745 753.521 355.778C742.484 368.267 729.704 374.948 712.277 374.948C698.336 374.948 686.427 369.429 677.714 360.135C668.71 350.841 663.773 336.9 663.772 321.216C663.772 307.274 668.71 290.138 681.199 278.229C689.041 270.678 702.112 263.997 717.215 263.997ZM793.393 262.546C793.973 262.546 794.845 263.709 794.845 266.031C794.845 269.807 794.264 280.264 794.264 285.201C794.264 286.072 795.135 286.363 795.716 285.782C803.848 275.326 815.176 264.87 826.794 264.87C830.279 264.87 834.055 266.031 836.669 268.064C838.702 269.807 839.282 271.26 839.282 272.712C839.282 275.035 836.378 279.973 832.603 283.458C829.698 286.072 828.536 286.363 827.374 286.363C826.793 286.363 825.631 286.363 822.146 284.33C818.952 282.297 815.175 280.554 811.98 280.554C807.624 280.554 803.267 282.878 799.782 286.072C796.878 289.267 795.715 292.172 795.425 295.367C794.554 299.434 794.845 308.437 794.845 314.246C794.845 335.448 795.425 349.68 796.006 355.779C797.168 365.073 800.363 367.107 811.399 367.979C815.466 368.85 816.628 369.431 816.628 370.883C816.628 372.335 814.304 372.916 809.947 372.916C803.848 372.916 795.425 371.754 782.646 371.754C770.447 371.754 768.123 373.206 763.186 373.206C759.991 373.206 758.539 372.916 758.539 371.754C758.539 370.592 759.991 369.141 762.604 368.56C768.994 367.107 771.899 364.783 772.771 356.65C773.351 351.712 773.642 335.448 773.642 316.279C773.932 297.981 773.932 288.686 773.642 284.62C773.642 282.587 771.899 282.006 766.381 277.068C764.348 275.616 764.057 275.035 764.057 274.164C764.057 273.583 765.8 272.421 768.123 271.55C775.384 269.517 784.098 266.612 789.035 263.998C791.068 262.836 792.521 262.546 793.393 262.546ZM569.862 262.256C570.734 261.675 572.186 262.837 571.896 264.579C571.605 268.064 571.024 275.326 571.314 279.683C571.314 280.263 572.186 280.844 572.767 280.264C579.737 275.036 586.418 270.388 592.518 267.774C598.326 264.87 604.425 263.998 609.653 263.998C621.562 263.998 628.532 269.517 632.599 274.164C638.988 280.844 641.603 295.076 641.894 311.632C641.894 327.316 642.184 329.93 642.184 344.742C642.474 364.202 643.345 366.236 651.188 367.979C653.801 368.85 655.544 369.721 655.544 370.883C655.544 372.625 653.511 372.916 650.606 372.916C645.959 372.916 637.246 371.754 631.146 371.754C619.529 371.754 615.172 372.916 611.396 372.916C609.073 372.916 606.749 372.335 606.749 371.173C606.749 370.011 608.492 368.85 611.978 367.979C619.238 366.236 620.4 364.202 620.4 356.07V315.988C620.4 292.753 618.367 285.782 611.396 280.264C607.04 276.778 601.521 275.035 595.422 275.035C588.161 275.035 581.19 277.94 574.51 283.458C572.767 285.201 571.314 289.267 571.314 291.591C571.314 295.657 571.605 310.18 571.605 326.735C571.896 345.614 572.767 354.617 573.058 358.684C573.929 365.364 577.124 366.817 582.062 367.979C585.546 369.14 586.708 369.721 586.708 371.173C586.708 372.916 583.803 372.916 581.189 372.916C578.575 372.916 563.763 371.754 557.373 371.754C553.307 371.754 546.917 372.335 540.527 372.335C537.332 372.335 535.299 371.754 535.299 370.302C535.299 368.85 537.623 367.978 541.108 367.397C548.66 365.945 549.241 363.912 549.531 357.812C550.112 337.772 550.402 311.632 550.402 287.234C550.402 284.33 549.822 281.135 543.142 277.649C541.109 276.197 540.817 275.616 540.817 274.745C540.817 273.874 541.98 273.293 544.884 272.422C552.145 270.679 564.925 265.16 569.862 262.256ZM405.373 262.834C406.244 262.834 406.826 263.705 406.535 266.9C405.954 272.71 405.954 289.846 405.954 306.981C405.954 333.122 405.954 355.196 406.535 359.843C407.116 365.651 409.73 367.394 414.667 368.556C417.571 369.137 418.733 369.718 418.733 370.88C418.733 372.332 416.7 372.913 414.377 372.913C410.892 372.913 401.307 371.751 392.303 371.751C382.137 371.751 376.619 372.332 373.424 372.332C371.391 372.332 369.357 371.751 369.357 370.589C369.358 369.427 370.81 368.556 374.876 367.685C381.266 366.232 384.171 363.328 384.171 352.001C384.461 343.288 385.042 291.008 385.042 288.103C385.042 283.746 384.751 282.004 376.909 277.356C375.457 276.776 374.586 275.613 374.586 275.032C374.586 274.161 375.457 273.29 378.071 272.709C387.366 270.385 393.755 267.772 401.017 264.867C403.34 263.706 404.792 262.834 405.373 262.834ZM65.6406 191.967C58.9606 191.967 51.4095 193.419 48.5049 194.581C47.0527 195.162 45.3096 197.195 45.3096 202.713C44.7287 212.298 44.4385 221.592 44.4385 275.034C44.4385 304.66 45.3093 323.249 46.1807 337.48C47.3424 351.422 49.0856 358.392 56.3467 363.62C60.4129 367.105 69.1262 370.301 78.7109 370.301C90.3288 370.301 100.785 367.977 109.208 363.039C126.344 353.745 149.58 331.09 149.58 283.748C149.58 257.317 141.157 231.757 122.858 214.621C106.594 199.809 89.7475 191.967 65.6406 191.967ZM470.458 266.322C465.23 266.322 460.583 268.937 456.808 272.713C451.58 278.231 449.256 288.688 449.256 297.691C449.256 311.923 453.903 323.831 457.969 328.479C462.035 333.707 467.554 337.482 475.105 337.482C487.885 337.482 495.728 321.508 495.728 308.438C495.728 295.658 493.113 283.169 487.014 275.617C481.786 269.227 477.719 266.322 470.458 266.322ZM245.276 268.063C238.306 268.063 231.626 272.42 225.526 278.52C222.041 282.586 219.427 288.975 219.427 291.009C219.427 291.59 220.008 292.461 220.589 292.461H255.732C262.412 292.461 262.993 288.976 262.993 286.362C262.993 282.296 262.123 277.358 258.928 273.582C256.314 270.968 251.666 268.063 245.276 268.063ZM714.311 268.063C707.34 268.063 700.659 272.42 694.56 278.52C691.074 282.586 688.461 288.975 688.461 291.009C688.461 291.59 689.041 292.461 689.622 292.461H724.767C731.446 292.461 732.027 288.976 732.027 286.362C732.027 282.296 731.156 277.358 727.961 273.582C725.347 270.968 720.7 268.064 714.311 268.063ZM397.821 214.039C404.502 214.039 408.568 220.138 408.568 225.366C408.568 234.08 401.307 237.564 396.95 237.564C391.722 237.564 386.494 232.337 386.494 226.237C386.494 218.105 392.884 214.039 397.821 214.039Z" fill="#2B2325"/>
<rect x="852.348" y="291.369" width="96.8781" height="48.9432" rx="24.4716" fill="url(#paint0_linear_468_1762)"/>
<path d="M922.545 329.311C921.461 329.311 920.499 329.079 919.658 328.615C918.84 328.128 918.198 327.464 917.734 326.624C917.292 325.783 917.07 324.832 917.07 323.77C917.07 321.801 917.922 320.275 919.625 319.191C921.329 318.085 924.038 317.333 927.755 316.935C927.733 316.315 927.622 315.773 927.423 315.309C927.224 314.822 926.892 314.435 926.427 314.148C925.985 313.86 925.377 313.716 924.602 313.716C923.74 313.716 922.888 313.882 922.048 314.214C921.207 314.546 920.355 314.977 919.493 315.508L917.767 312.256C918.497 311.792 919.271 311.382 920.09 311.028C920.908 310.675 921.771 310.387 922.678 310.166C923.585 309.922 924.525 309.801 925.498 309.801C927.069 309.801 928.385 310.11 929.447 310.73C930.509 311.349 931.305 312.267 931.836 313.484C932.367 314.701 932.632 316.205 932.632 317.997V328.847H928.651L928.319 326.856H928.153C927.357 327.564 926.494 328.15 925.565 328.615C924.636 329.079 923.629 329.311 922.545 329.311ZM924.171 325.496C924.857 325.496 925.476 325.341 926.029 325.031C926.604 324.699 927.18 324.246 927.755 323.671V319.954C926.25 320.131 925.056 320.386 924.171 320.717C923.286 321.049 922.656 321.447 922.28 321.912C921.904 322.354 921.716 322.852 921.716 323.405C921.716 324.135 921.937 324.666 922.379 324.998C922.844 325.33 923.441 325.496 924.171 325.496Z" fill="#F4F3F2"/>
<path d="M913.168 329.312C911.708 329.312 910.525 329.025 909.618 328.45C908.711 327.852 908.058 327.034 907.66 325.994C907.262 324.955 907.063 323.749 907.063 322.377V314.115H904.441V310.499L907.328 310.266L907.892 305.256H911.907V310.266H916.519V314.115H911.907V322.344C911.907 323.406 912.128 324.191 912.571 324.7C913.013 325.209 913.644 325.463 914.462 325.463C914.772 325.463 915.093 325.419 915.424 325.331C915.756 325.242 916.044 325.154 916.287 325.065L917.117 328.616C916.608 328.77 916.022 328.925 915.358 329.08C914.717 329.235 913.987 329.312 913.168 329.312Z" fill="#F4F3F2"/>
<path d="M897.06 329.311C895.335 329.311 893.775 328.924 892.382 328.15C890.988 327.376 889.871 326.259 889.03 324.799C888.212 323.339 887.803 321.591 887.803 319.556C887.803 318.052 888.035 316.702 888.5 315.508C888.986 314.313 889.639 313.296 890.457 312.455C891.298 311.593 892.227 310.94 893.244 310.498C894.284 310.033 895.357 309.801 896.463 309.801C898.166 309.801 899.593 310.188 900.743 310.962C901.894 311.714 902.756 312.765 903.332 314.114C903.929 315.442 904.227 316.968 904.227 318.693C904.227 319.136 904.205 319.567 904.161 319.987C904.117 320.386 904.062 320.706 903.995 320.95H892.548C892.68 321.945 892.979 322.786 893.444 323.471C893.908 324.157 894.505 324.677 895.235 325.031C895.965 325.363 896.795 325.529 897.724 325.529C898.476 325.529 899.184 325.429 899.848 325.23C900.511 325.009 901.186 324.688 901.872 324.268L903.531 327.254C902.624 327.874 901.606 328.371 900.478 328.747C899.35 329.123 898.211 329.311 897.06 329.311ZM892.448 317.665H900.047C900.047 316.426 899.759 315.442 899.184 314.712C898.631 313.96 897.746 313.583 896.529 313.583C895.888 313.583 895.28 313.738 894.704 314.048C894.129 314.336 893.643 314.789 893.244 315.408C892.846 316.006 892.581 316.758 892.448 317.665Z" fill="#F4F3F2"/>
<path d="M878.261 329.312C877.443 329.312 876.602 329.102 875.74 328.682C874.877 328.262 874.07 327.664 873.317 326.89H873.152L872.753 328.848H868.938V302.369H873.815V309.039L873.649 312.025C874.401 311.361 875.22 310.83 876.105 310.432C877.012 310.012 877.919 309.802 878.826 309.802C880.352 309.802 881.657 310.2 882.741 310.996C883.847 311.771 884.688 312.866 885.263 314.281C885.86 315.675 886.159 317.323 886.159 319.225C886.159 321.349 885.783 323.174 885.03 324.7C884.278 326.204 883.294 327.355 882.077 328.151C880.883 328.925 879.611 329.312 878.261 329.312ZM877.2 325.297C877.93 325.297 878.593 325.087 879.191 324.667C879.788 324.225 880.263 323.561 880.617 322.676C880.971 321.791 881.148 320.674 881.148 319.325C881.148 318.152 881.016 317.157 880.75 316.338C880.485 315.498 880.086 314.867 879.556 314.447C879.025 314.027 878.328 313.817 877.465 313.817C876.846 313.817 876.237 313.972 875.64 314.281C875.065 314.591 874.457 315.067 873.815 315.708V323.904C874.39 324.435 874.965 324.8 875.541 324.999C876.138 325.198 876.691 325.297 877.2 325.297Z" fill="#F4F3F2"/>
<defs>
<linearGradient id="paint0_linear_468_1762" x1="937.972" y1="332.001" x2="881.362" y2="292.509" gradientUnits="userSpaceOnUse">
<stop stop-color="#A17F6A"/>
<stop offset="1" stop-color="#BF8058"/>
</linearGradient>
</defs>
</svg>
